<svg width="164" height="42" viewBox="0 0 164 42" fill="none" xmlns="http://www.w3.org/2000/svg">
<path fill-rule="evenodd" clip-rule="evenodd" d="M22.152 40.768L35.464 4.472H27.716L17.784 33.332L7.8 4.472H0L13.312 40.768H22.152ZM66.4008 28.548C66.5394 27.716 66.6088 26.78 66.6088 25.74C66.6088 22.932 66.0021 20.4533 64.7888 18.304C63.6101 16.12 61.9288 14.4387 59.7448 13.26C57.5954 12.0813 55.1514 11.492 52.4128 11.492C49.5701 11.492 47.0568 12.0987 44.8727 13.312C42.6888 14.5253 40.9901 16.2587 39.7767 18.512C38.5634 20.7653 37.9567 23.3827 37.9567 26.364C37.9567 29.3107 38.5634 31.9107 39.7767 34.164C41.0248 36.4173 42.7407 38.168 44.9248 39.416C47.1434 40.6293 49.6394 41.236 52.4128 41.236C55.8448 41.236 58.7394 40.352 61.0967 38.584C63.4541 36.7813 65.0487 34.4933 65.8807 31.72H58.0288C56.8848 34.0427 54.9608 35.204 52.2568 35.204C50.3848 35.204 48.8074 34.6147 47.5248 33.436C46.2421 32.2573 45.5141 30.628 45.3408 28.548H66.4008ZM57.0407 19.188C58.3581 20.2973 59.0341 21.788 59.0687 23.66H45.3928C45.6701 21.7187 46.4154 20.2107 47.6288 19.136C48.8768 18.0267 50.4021 17.472 52.2048 17.472C54.1114 17.472 55.7234 18.044 57.0407 19.188ZM79.2025 40.768V2.288H71.9225V40.768H79.2025ZM106.259 40.768H113.591V11.96H106.259V27.82C106.259 30.108 105.687 31.876 104.543 33.124C103.399 34.3373 101.822 34.944 99.8112 34.944C97.8352 34.944 96.2752 34.3373 95.1312 33.124C93.9872 31.876 93.4152 30.108 93.4152 27.82V11.96H86.1352V28.86C86.1352 31.4253 86.6205 33.644 87.5912 35.516C88.5965 37.3533 89.9658 38.7573 91.6992 39.728C93.4325 40.664 95.4258 41.132 97.6792 41.132C99.4472 41.132 101.076 40.7853 102.567 40.092C104.092 39.364 105.323 38.376 106.259 37.128V40.768ZM121.242 7.332C122.109 8.12934 123.183 8.528 124.466 8.528C125.749 8.528 126.806 8.12934 127.638 7.332C128.505 6.5 128.938 5.47733 128.938 4.264C128.938 3.05067 128.505 2.04533 127.638 1.248C126.806 0.416 125.749 0 124.466 0C123.183 0 122.109 0.416 121.242 1.248C120.41 2.04533 119.994 3.05067 119.994 4.264C119.994 5.47733 120.41 6.5 121.242 7.332ZM120.774 40.768H128.054V11.96H120.774V40.768ZM135.091 18.512C133.947 20.7653 133.375 23.348 133.375 26.26C133.375 29.2067 133.947 31.824 135.091 34.112C136.269 36.3653 137.847 38.116 139.823 39.364C141.833 40.612 144.052 41.236 146.479 41.236C148.628 41.236 150.517 40.8027 152.147 39.936C153.811 39.0347 155.111 37.908 156.047 36.556V40.768H163.379V11.96H156.047V16.068C155.076 14.7507 153.776 13.6587 152.147 12.792C150.552 11.9253 148.68 11.492 146.531 11.492C144.069 11.492 141.833 12.0987 139.823 13.312C137.847 14.5253 136.269 16.2587 135.091 18.512ZM155.007 21.84C155.7 23.088 156.047 24.596 156.047 26.364C156.047 28.132 155.7 29.6573 155.007 30.94C154.313 32.188 153.377 33.1587 152.199 33.852C151.02 34.5107 149.755 34.84 148.403 34.84C147.085 34.84 145.837 34.4933 144.659 33.8C143.515 33.1067 142.579 32.1187 141.851 30.836C141.157 29.5187 140.811 27.9933 140.811 26.26C140.811 24.5267 141.157 23.036 141.851 21.788C142.579 20.5053 143.515 19.5347 144.659 18.876C145.803 18.2173 147.051 17.888 148.403 17.888C149.755 17.888 151.02 18.2347 152.199 18.928C153.377 19.5867 154.313 20.5573 155.007 21.84Z" fill="black"/>
</svg>
