<svg width="512" height="512" viewBox="0 0 512 512" fill="none" xmlns="http://www.w3.org/2000/svg">
<mask id="mask0_115_269" style="mask-type:luminance" maskUnits="userSpaceOnUse" x="14" y="7" width="483" height="497">
<path d="M496.235 7H14.7656V504H496.235V7Z" fill="white"/>
</mask>
<g mask="url(#mask0_115_269)">
<path d="M213.9 423.557L314.564 463.053C315.054 463.053 315.495 462.781 315.673 462.37L496.234 45.1797H428.558C392.377 45.1797 360.039 65.4946 347.564 96.0601L213.9 423.557Z" fill="url(#paint0_linear_115_269)"/>
<path d="M14.7656 46.8516H66.0899H84.2699C120.352 46.8516 152.624 67.0582 165.171 97.5061L315.789 463.039H248.789C212.877 463.039 180.719 443.021 168.051 412.778L14.7656 46.8516Z" fill="url(#paint1_linear_115_269)"/>
</g>
<defs>
<linearGradient id="paint0_linear_115_269" x1="289.444" y1="454.791" x2="448.84" y2="17.426" gradientUnits="userSpaceOnUse">
<stop stop-color="#7000FF"/>
<stop offset="1" stop-color="#CC00ED"/>
</linearGradient>
<linearGradient id="paint1_linear_115_269" x1="97.3914" y1="26.9261" x2="208.785" y2="488.845" gradientUnits="userSpaceOnUse">
<stop stop-color="#FFE194"/>
<stop offset="1" stop-color="#FB4BFF"/>
</linearGradient>
</defs>
</svg>
