<svg width="333" height="37" viewBox="0 0 333 37" fill="none" xmlns="http://www.w3.org/2000/svg">
<path d="M31.7532 4.241L20.1052 36H12.3702L0.722205 4.241H7.54721L16.2832 29.4935L24.9737 4.241H31.7532ZM59.0049 22.8505C59.0049 23.7605 58.9442 24.5795 58.8229 25.3075H40.3954C40.547 27.1275 41.184 28.5532 42.3064 29.5845C43.4287 30.6158 44.8089 31.1315 46.4469 31.1315C48.8129 31.1315 50.4964 30.1153 51.4974 28.083H58.3679C57.6399 30.5097 56.2445 32.5117 54.1819 34.089C52.1192 35.636 49.5864 36.4095 46.5834 36.4095C44.1567 36.4095 41.9727 35.8787 40.0314 34.817C38.1204 33.725 36.6189 32.1932 35.5269 30.2215C34.4652 28.2498 33.9344 25.9748 33.9344 23.3965C33.9344 20.7878 34.4652 18.4977 35.5269 16.526C36.5885 14.5543 38.0749 13.0377 39.9859 11.976C41.8969 10.9143 44.096 10.3835 46.5834 10.3835C48.9797 10.3835 51.1182 10.8992 52.9989 11.9305C54.9099 12.9618 56.381 14.433 57.4124 16.344C58.474 18.2247 59.0049 20.3935 59.0049 22.8505ZM52.4074 21.0305C52.377 19.3925 51.7855 18.0882 50.6329 17.1175C49.4802 16.1165 48.0697 15.616 46.4014 15.616C44.824 15.616 43.4894 16.1013 42.3974 17.072C41.3357 18.0123 40.6835 19.3318 40.4409 21.0305H52.4074ZM70.0244 2.33V36H63.6544V2.33H70.0244ZM100.114 10.793V36H93.699V32.815C92.88 33.907 91.8031 34.7715 90.4685 35.4085C89.1641 36.0152 87.7385 36.3185 86.1915 36.3185C84.2198 36.3185 82.4756 35.909 80.959 35.09C79.4423 34.2407 78.2441 33.0122 77.3645 31.4045C76.5151 29.7665 76.0905 27.8252 76.0905 25.5805V10.793H82.4605V24.6705C82.4605 26.6725 82.961 28.2195 83.962 29.3115C84.963 30.3732 86.328 30.904 88.057 30.904C89.8163 30.904 91.1965 30.3732 92.1975 29.3115C93.1985 28.2195 93.699 26.6725 93.699 24.6705V10.793H100.114ZM109.63 7.79C108.508 7.79 107.567 7.44117 106.809 6.7435C106.081 6.0155 105.717 5.12066 105.717 4.059C105.717 2.99733 106.081 2.11766 106.809 1.42C107.567 0.691998 108.508 0.327998 109.63 0.327998C110.752 0.327998 111.678 0.691998 112.406 1.42C113.164 2.11766 113.543 2.99733 113.543 4.059C113.543 5.12066 113.164 6.0155 112.406 6.7435C111.678 7.44117 110.752 7.79 109.63 7.79ZM112.77 10.793V36H106.4V10.793H112.77ZM117.425 23.3055C117.425 20.7575 117.926 18.4977 118.927 16.526C119.958 14.5543 121.338 13.0377 123.067 11.976C124.826 10.9143 126.783 10.3835 128.937 10.3835C130.817 10.3835 132.455 10.7627 133.851 11.521C135.276 12.2793 136.414 13.2348 137.263 14.3875V10.793H143.679V36H137.263V32.3145C136.444 33.4975 135.307 34.4833 133.851 35.272C132.425 36.0303 130.772 36.4095 128.891 36.4095C126.768 36.4095 124.826 35.8635 123.067 34.7715C121.338 33.6795 119.958 32.1477 118.927 30.176C117.926 28.174 117.425 25.8838 117.425 23.3055ZM137.263 23.3965C137.263 21.8495 136.96 20.53 136.353 19.438C135.746 18.3157 134.927 17.4663 133.896 16.89C132.865 16.2833 131.758 15.98 130.575 15.98C129.392 15.98 128.3 16.2682 127.299 16.8445C126.298 17.4208 125.479 18.2702 124.842 19.3925C124.235 20.4845 123.932 21.7888 123.932 23.3055C123.932 24.8222 124.235 26.1568 124.842 27.3095C125.479 28.4318 126.298 29.2963 127.299 29.903C128.33 30.5097 129.422 30.813 130.575 30.813C131.758 30.813 132.865 30.5248 133.896 29.9485C134.927 29.3418 135.746 28.4925 136.353 27.4005C136.96 26.2782 137.263 24.9435 137.263 23.3965ZM176.097 19.4835C177.948 19.8172 179.495 20.7272 180.738 22.2135C182.012 23.6998 182.649 25.444 182.649 27.446C182.649 29.084 182.255 30.5552 181.466 31.8595C180.708 33.1335 179.555 34.1497 178.008 34.908C176.492 35.636 174.641 36 172.457 36H162.311V4.059H172.275C175.46 4.059 177.857 4.80217 179.464 6.2885C181.102 7.7445 181.921 9.64033 181.921 11.976C181.921 14.0083 181.375 15.6615 180.283 16.9355C179.191 18.1792 177.796 19.0285 176.097 19.4835ZM164.358 18.5735H172.366C174.763 18.5735 176.598 18.0123 177.872 16.89C179.176 15.7373 179.828 14.16 179.828 12.158C179.828 10.2167 179.191 8.68483 177.917 7.5625C176.643 6.44016 174.717 5.879 172.139 5.879H164.358V18.5735ZM172.321 34.2255C174.899 34.2255 176.916 33.6188 178.372 32.4055C179.859 31.1618 180.602 29.4632 180.602 27.3095C180.602 25.1862 179.844 23.5027 178.327 22.259C176.841 20.985 174.793 20.348 172.184 20.348H164.358V34.2255H172.321ZM190.707 16.3895C191.314 14.5695 192.391 13.1893 193.938 12.249C195.485 11.2783 197.457 10.793 199.853 10.793V12.9315H199.17C196.744 12.9315 194.727 13.6292 193.119 15.0245C191.511 16.3895 190.707 18.6342 190.707 21.7585V36H188.66V11.2935H190.707V16.3895ZM215.442 36.364C213.136 36.364 211.059 35.8483 209.208 34.817C207.358 33.7857 205.902 32.3145 204.84 30.4035C203.809 28.4622 203.293 26.2023 203.293 23.624C203.293 21.076 203.824 18.8465 204.886 16.9355C205.947 14.9942 207.403 13.523 209.254 12.522C211.134 11.4907 213.227 10.975 215.533 10.975C217.838 10.975 219.916 11.4907 221.766 12.522C223.617 13.523 225.057 14.979 226.089 16.89C227.15 18.801 227.681 21.0457 227.681 23.624C227.681 26.2023 227.15 28.4622 226.089 30.4035C225.027 32.3145 223.556 33.7857 221.675 34.817C219.825 35.8483 217.747 36.364 215.442 36.364ZM215.442 34.544C217.231 34.544 218.9 34.1497 220.447 33.361C222.024 32.542 223.283 31.3135 224.223 29.6755C225.164 28.0375 225.634 26.0203 225.634 23.624C225.634 21.258 225.164 19.256 224.223 17.618C223.283 15.98 222.039 14.7667 220.492 13.978C218.945 13.159 217.277 12.7495 215.487 12.7495C213.698 12.7495 212.029 13.159 210.482 13.978C208.966 14.7667 207.737 15.98 206.797 17.618C205.856 19.256 205.386 21.258 205.386 23.624C205.386 26.0203 205.841 28.0375 206.751 29.6755C207.692 31.3135 208.92 32.542 210.437 33.361C211.984 34.1497 213.652 34.544 215.442 34.544ZM266.198 11.2935L258.418 36H256.461L248.59 14.1145L240.673 36H238.716L230.936 11.2935H233.074L239.717 33.6795L247.634 11.2935H249.591L257.462 33.5885L264.105 11.2935H266.198ZM278.92 36.364C276.16 36.364 273.9 35.7573 272.14 34.544C270.411 33.3307 269.441 31.6017 269.228 29.357H271.321C271.473 30.9647 272.201 32.2387 273.505 33.179C274.84 34.1193 276.645 34.5895 278.92 34.5895C280.801 34.5895 282.287 34.1193 283.379 33.179C284.501 32.2083 285.062 31.0253 285.062 29.63C285.062 28.6593 284.759 27.8707 284.152 27.264C283.576 26.627 282.848 26.1417 281.968 25.808C281.089 25.4743 279.891 25.1103 278.374 24.716C276.554 24.2307 275.083 23.7605 273.96 23.3055C272.838 22.8202 271.883 22.1073 271.094 21.167C270.305 20.2267 269.911 18.9678 269.911 17.3905C269.911 16.2378 270.26 15.1762 270.957 14.2055C271.655 13.2045 272.626 12.4158 273.869 11.8395C275.113 11.2632 276.524 10.975 278.101 10.975C280.679 10.975 282.757 11.6272 284.334 12.9315C285.942 14.2055 286.807 15.98 286.928 18.255H284.88C284.789 16.617 284.152 15.2823 282.969 14.251C281.786 13.2197 280.148 12.704 278.055 12.704C276.296 12.704 274.84 13.159 273.687 14.069C272.535 14.979 271.958 16.0862 271.958 17.3905C271.958 18.5432 272.277 19.4835 272.914 20.2115C273.581 20.9092 274.385 21.4552 275.325 21.8495C276.296 22.2135 277.57 22.6078 279.147 23.0325C280.876 23.4875 282.257 23.9425 283.288 24.3975C284.35 24.8222 285.244 25.4592 285.972 26.3085C286.7 27.1275 287.064 28.2347 287.064 29.63C287.064 30.904 286.716 32.0567 286.018 33.088C285.32 34.1193 284.35 34.9232 283.106 35.4995C281.862 36.0758 280.467 36.364 278.92 36.364ZM315.551 21.986C315.551 23.078 315.52 23.897 315.46 24.443H294.12C294.181 26.6573 294.666 28.5228 295.576 30.0395C296.486 31.5562 297.684 32.6937 299.171 33.452C300.657 34.2103 302.28 34.5895 304.039 34.5895C306.466 34.5895 308.498 33.998 310.136 32.815C311.774 31.6017 312.805 29.9637 313.23 27.901H315.369C314.883 30.4187 313.64 32.4662 311.638 34.0435C309.636 35.5905 307.103 36.364 304.039 36.364C301.734 36.364 299.671 35.8483 297.851 34.817C296.031 33.7857 294.605 32.3145 293.574 30.4035C292.543 28.4622 292.027 26.2023 292.027 23.624C292.027 21.0457 292.528 18.801 293.529 16.89C294.56 14.979 295.986 13.523 297.806 12.522C299.626 11.4907 301.703 10.975 304.039 10.975C306.405 10.975 308.453 11.4907 310.182 12.522C311.941 13.523 313.276 14.8728 314.186 16.5715C315.096 18.2398 315.551 20.0447 315.551 21.986ZM313.503 22.7595C313.594 20.5755 313.2 18.7252 312.32 17.2085C311.471 15.6918 310.303 14.5695 308.817 13.8415C307.33 13.0832 305.723 12.704 303.994 12.704C302.265 12.704 300.657 13.0832 299.171 13.8415C297.715 14.5695 296.516 15.6918 295.576 17.2085C294.666 18.7252 294.181 20.5755 294.12 22.7595H313.503ZM323.786 16.3895C324.393 14.5695 325.47 13.1893 327.017 12.249C328.564 11.2783 330.535 10.793 332.932 10.793V12.9315H332.249C329.822 12.9315 327.805 13.6292 326.198 15.0245C324.59 16.3895 323.786 18.6342 323.786 21.7585V36H321.739V11.2935H323.786V16.3895Z" fill="#FBFBFE"/>
</svg>
